# xmcd
#
# Track frame offsets: 
#        150
#        19956
#        35903
#        57832
#        66169
#        90038
#        111685
#        132788
#        153457
#        176616
#        189740
#        204070
#        223587
#
# Disc length: 3276 seconds
#
# Revision: 0
# Processed by: cddbd v1.5.2PL0 Copyright (c) Steve Scherf et al.
# Submitted via: ExactAudioCopyFreeDBPlugin 1.0
#
DISCID=b70cca0d
DTITLE=Middle Child - Bareffet and Pregnant
DYEAR=2005
DGENRE=R&B
TTITLE0=What Had Happened Was
TTITLE1=What If
TTITLE2=Old School
TTITLE3=Woman Enuff 2 Say
TTITLE4=Kiss It (Make It Better)
TTITLE5=Know That You Care
TTITLE6=No More Love
TTITLE7=Taken
TTITLE8=We Did It To Ourselves
TTITLE9=Anyman
TTITLE10=Yesterday
TTITLE11=Peace and Love
TTITLE12=Night Of Conception (Bonus Track)
EXTD=
EXTT0=
EXTT1=
EXTT2=
EXTT3=
EXTT4=
EXTT5=
EXTT6=
EXTT7=
EXTT8=
EXTT9=
EXTT10=
EXTT11=
EXTT12=
PLAYORDER=
